<svg width="16" height="16" viewBox="0 0 16 16" fill="none" xmlns="http://www.w3.org/2000/svg">
<path d="M13.1888 8.05259C13.0795 7.66192 12.9562 7.24859 12.8188 6.80392C12.4121 5.68273 12.1374 4.518 12.0002 3.33325C12.0002 3.15644 12.0704 2.98687 12.1954 2.86185C12.3204 2.73682 12.49 2.66659 12.6668 2.66659C12.8436 2.66659 13.0132 2.73682 13.1382 2.86185C13.2633 2.98687 13.3335 3.15644 13.3335 3.33325C13.3335 3.51006 13.4037 3.67963 13.5288 3.80466C13.6538 3.92968 13.8233 3.99992 14.0002 3.99992C14.177 3.99992 14.3465 3.92968 14.4716 3.80466C14.5966 3.67963 14.6668 3.51006 14.6668 3.33325C14.6668 2.80282 14.4561 2.29411 14.081 1.91904C13.706 1.54397 13.1973 1.33325 12.6668 1.33325C12.1364 1.33325 11.6277 1.54397 11.2526 1.91904C10.8775 2.29411 10.6668 2.80282 10.6668 3.33325C10.6833 3.84232 10.7546 4.34812 10.8795 4.84192L7.67949 7.33325L3.98082 4.66659H6.00016C6.17697 4.66659 6.34654 4.59635 6.47156 4.47132C6.59659 4.3463 6.66682 4.17673 6.66682 3.99992C6.66682 3.82311 6.59659 3.65354 6.47156 3.52851C6.34654 3.40349 6.17697 3.33325 6.00016 3.33325H3.98082C3.70387 3.33317 3.43398 3.42069 3.20978 3.58328C2.98558 3.74588 2.81855 3.97522 2.73259 4.2385C2.64663 4.50178 2.64614 4.7855 2.7312 5.04907C2.81626 5.31264 2.98251 5.54256 3.20616 5.70592L6.58682 8.18059L5.62816 8.92659C5.03268 8.36594 4.25036 8.04618 3.43267 8.02923C2.61497 8.01227 1.82007 8.29932 1.20187 8.8348C0.583664 9.37028 0.186137 10.1161 0.0862537 10.9278C-0.0136294 11.7396 0.191237 12.5595 0.661187 13.2289C1.13114 13.8983 1.83274 14.3695 2.63016 14.5512C3.42757 14.733 4.26407 14.6125 4.97769 14.2129C5.69132 13.8133 6.2313 13.1632 6.4931 12.3883C6.75489 11.6135 6.71988 10.7691 6.39482 10.0186L11.2542 6.23925C11.3482 6.55659 11.7388 7.82859 11.8248 8.12125C11.028 8.32931 10.3365 8.82532 9.88404 9.51346C9.43157 10.2016 9.25022 11.033 9.37501 11.8471C9.4998 12.6611 9.92189 13.4001 10.5597 13.9211C11.1975 14.4421 12.0058 14.7082 12.8284 14.668C13.651 14.6278 14.4295 14.2841 15.0135 13.7034C15.5975 13.1227 15.9455 12.3461 15.9903 11.5238C16.0351 10.7014 15.7735 9.89164 15.2561 9.2509C14.7387 8.61016 14.0022 8.18394 13.1888 8.05459V8.05259ZM3.33349 13.3333C2.93793 13.3333 2.55125 13.216 2.22235 12.9962C1.89345 12.7764 1.63711 12.4641 1.48573 12.0986C1.33436 11.7332 1.29475 11.331 1.37192 10.9431C1.44909 10.5551 1.63957 10.1987 1.91928 9.91904C2.19898 9.63933 2.55535 9.44885 2.94331 9.37168C3.33127 9.29451 3.73341 9.33412 4.09886 9.48549C4.46431 9.63687 4.77667 9.89321 4.99643 10.2221C5.21619 10.551 5.33349 10.9377 5.33349 11.3333C5.33349 11.8637 5.12278 12.3724 4.7477 12.7475C4.37263 13.1225 3.86392 13.3333 3.33349 13.3333ZM12.6668 13.3333C12.2713 13.3333 11.8846 13.216 11.5557 12.9962C11.2268 12.7764 10.9704 12.4641 10.8191 12.0986C10.6677 11.7332 10.6281 11.331 10.7053 10.9431C10.7824 10.5551 10.9729 10.1987 11.2526 9.91904C11.5323 9.63933 11.8887 9.44885 12.2766 9.37168C12.6646 9.29451 13.0667 9.33412 13.4322 9.48549C13.7976 9.63687 14.11 9.89321 14.3298 10.2221C14.5495 10.551 14.6668 10.9377 14.6668 11.3333C14.6668 11.8637 14.4561 12.3724 14.081 12.7475C13.706 13.1225 13.1973 13.3333 12.6668 13.3333Z" fill="#3922C5"/>
</svg>
